# xmcd
#
# Track frame offsets: 
#        150
#        25143
#        62668
#        79255
#        110443
#        142405
#        162055
#        182343
#        214393
#        238855
#        258868
#
# Disc length: 4032 seconds
#
# Revision: 2
# Processed by: cddbd v1.5.2PL0 Copyright (c) Steve Scherf et al.
# Submitted via: ExactAudioCopy v0.99pb5
#
DISCID=980fbe0b
DTITLE=Whitney Houston - Live In NY 1991 (91.4)
DYEAR=1991
DGENRE=Pop
TTITLE0=I Wanna Dance With Somebody
TTITLE1=Saving All My Love For You
TTITLE2=How Will I Know
TTITLE3=Didn't We Almost Have It All
TTITLE4=All The Man That I Need
TTITLE5=My Name Is Not Susan
TTITLE6=Anymore
TTITLE7=A Song For You
TTITLE8=Who Do You Love
TTITLE9=I'm Your Baby Tonight
TTITLE10=Greatest Love Of All
EXTD=
EXTT0=
EXTT1=
EXTT2=
EXTT3=
EXTT4=
EXTT5=
EXTT6=
EXTT7=
EXTT8=
EXTT9=
EXTT10=
PLAYORDER=
